<?xml version="1.0" encoding="iso-8859-1"?>
<!-- Generator: Adobe Illustrator 19.0.0, SVG Export Plug-In . SVG Version: 6.00 Build 0)  -->
<svg version="1.1" id="Layer_1" xmlns="http://www.w3.org/2000/svg" xmlns:xlink="http://www.w3.org/1999/xlink" x="0px" y="0px"
	 viewBox="0 0 512 512" style="enable-background:new 0 0 512 512;" xml:space="preserve">
<g>
	<g>
		<g>
			<path d="M171.147,315.57v5.024c0,11.575,9.417,20.992,20.992,20.992h43.777c11.574,0,20.992-9.417,20.992-20.992v-5.024
				c0-11.575-9.417-20.992-20.992-20.992h-43.777C180.564,294.578,171.147,303.995,171.147,315.57z M240.76,315.57v5.024
				c0,2.671-2.172,4.844-4.844,4.844h-43.777c-2.671,0-4.844-2.173-4.844-4.844v-5.024c0-2.671,2.173-4.844,4.844-4.844h43.777
				C238.588,310.725,240.76,312.898,240.76,315.57z"/>
			<path d="M467.891,18.252C441.712,6.483,407.085,0,370.387,0c-36.699,0-71.327,6.483-97.504,18.252
				c-28.232,12.693-43.779,30.349-43.779,49.714v60.821v133.2h-15.077c-4.46,0-8.074,3.614-8.074,8.074
				c0,4.46,3.614,8.074,8.074,8.074h23.151h9.44c15.584,0,28.263,12.678,28.263,28.262v22.948c0,15.584-12.679,28.263-28.263,28.263
				H44.743c-15.583,0-28.263-12.679-28.263-28.263v-22.948c0-15.584,12.679-28.262,28.263-28.262h144.372
				c4.46,0,8.074-3.614,8.074-8.074c0-4.46-3.614-8.074-8.074-8.074H44.743c-24.488,0-44.411,19.923-44.411,44.41v22.948v53.308
				v68.744v15.528c0.001,24.488,19.924,44.411,44.411,44.411h201.874c13.101,0,24.892-5.707,33.028-14.759
				C304.894,506.543,336.811,512,370.387,512c36.698,0,71.324-6.482,97.503-18.252c28.231-12.693,43.778-30.349,43.778-49.714
				v-40.28V128.787V67.966C511.669,48.601,496.121,30.945,467.891,18.252z M274.247,472.865c-0.029,0.136-0.062,0.27-0.094,0.405
				c-0.111,0.481-0.235,0.959-0.37,1.434c-0.039,0.136-0.075,0.272-0.116,0.408c-0.17,0.561-0.356,1.116-0.562,1.665
				c-0.052,0.137-0.108,0.271-0.16,0.407c-0.168,0.432-0.348,0.858-0.538,1.281c-0.074,0.165-0.146,0.331-0.223,0.493
				c-0.24,0.508-0.494,1.011-0.764,1.505c-0.084,0.153-0.174,0.301-0.26,0.452c-0.212,0.371-0.434,0.74-0.664,1.102
				c-5.014,7.908-13.839,13.171-23.876,13.171H44.743c-13.794,0-25.306-9.938-27.769-23.028c7.502,3.45,17.076,5.468,27.769,5.468
				h201.874c10.687,0,20.256-2.015,27.757-5.462C274.331,472.399,274.296,472.634,274.247,472.865z M274.882,440.493v10.904
				c0,2.927-9.904,10.084-28.263,10.084H44.743c-18.36,0-28.263-7.157-28.263-10.084v-48.201h0.001
				c7.573,3.589,17.337,5.688,28.263,5.688h201.874c10.925,0,20.69-2.099,28.263-5.688V440.493z M274.882,382.653
				c0,2.927-9.904,10.084-28.263,10.084H44.743c-18.36,0-28.263-7.157-28.263-10.084v-19.076c0.008,0.006,0.016,0.012,0.024,0.018
				c0.028,0.023,0.057,0.044,0.086,0.068c0.491,0.404,0.99,0.796,1.497,1.178c0.169,0.127,0.342,0.248,0.513,0.372
				c0.372,0.272,0.747,0.542,1.128,0.802c0.208,0.142,0.42,0.28,0.631,0.419c0.353,0.233,0.709,0.463,1.069,0.686
				c0.226,0.14,0.454,0.278,0.684,0.413c0.357,0.212,0.717,0.419,1.08,0.621c0.234,0.13,0.467,0.259,0.704,0.386
				c0.375,0.2,0.752,0.392,1.132,0.581c0.229,0.114,0.458,0.23,0.688,0.34c0.422,0.2,0.848,0.391,1.278,0.578
				c0.195,0.085,0.388,0.175,0.585,0.258c0.628,0.264,1.262,0.516,1.903,0.751c0.038,0.014,0.075,0.025,0.113,0.039
				c0.604,0.22,1.214,0.426,1.83,0.62c0.219,0.069,0.441,0.129,0.662,0.195c0.439,0.131,0.88,0.259,1.324,0.377
				c0.259,0.068,0.52,0.13,0.782,0.194c0.414,0.101,0.829,0.199,1.248,0.289c0.276,0.059,0.552,0.114,0.83,0.168
				c0.412,0.08,0.827,0.154,1.242,0.223c0.281,0.046,0.563,0.091,0.845,0.132c0.427,0.061,0.858,0.115,1.289,0.165
				c0.272,0.031,0.543,0.065,0.816,0.091c0.475,0.045,0.952,0.079,1.431,0.109c0.234,0.015,0.465,0.036,0.699,0.046
				c0.714,0.034,1.431,0.055,2.152,0.055h201.875v0.003c0.721,0,1.438-0.02,2.152-0.055c0.234-0.011,0.466-0.032,0.699-0.046
				c0.479-0.03,0.956-0.063,1.431-0.109c0.273-0.026,0.545-0.06,0.816-0.091c0.432-0.049,0.861-0.102,1.29-0.165
				c0.283-0.041,0.564-0.086,0.845-0.132c0.417-0.069,0.83-0.142,1.242-0.223c0.278-0.054,0.554-0.109,0.83-0.168
				c0.419-0.089,0.833-0.187,1.248-0.288c0.26-0.064,0.522-0.126,0.781-0.194c0.445-0.117,0.885-0.247,1.324-0.377
				c0.221-0.066,0.442-0.126,0.662-0.195c0.614-0.194,1.222-0.399,1.825-0.618c0.039-0.014,0.08-0.027,0.118-0.041
				c0.642-0.236,1.276-0.488,1.903-0.751c0.197-0.083,0.389-0.173,0.585-0.258c0.428-0.187,0.856-0.378,1.277-0.578
				c0.231-0.111,0.46-0.227,0.69-0.341c0.38-0.189,0.758-0.381,1.13-0.58c0.237-0.127,0.471-0.256,0.706-0.388
				c0.363-0.202,0.721-0.409,1.078-0.62c0.229-0.137,0.459-0.273,0.685-0.414c0.36-0.223,0.715-0.452,1.068-0.686
				c0.211-0.14,0.424-0.277,0.632-0.42c0.38-0.259,0.752-0.529,1.124-0.8c0.172-0.126,0.347-0.248,0.518-0.376
				c0.505-0.38,1.001-0.77,1.489-1.17c0.031-0.026,0.064-0.049,0.095-0.075c0.008-0.006,0.015-0.012,0.023-0.018V382.653z
				 M279.505,32.98c24.141-10.854,56.418-16.832,90.882-16.832c34.464,0,66.74,5.978,90.881,16.832
				c21.768,9.788,34.252,22.54,34.252,34.986s-12.485,25.199-34.252,34.986c-24.142,10.855-56.416,16.833-90.881,16.833
				c-34.465,0-66.742-5.978-90.883-16.833c-21.768-9.788-34.252-22.54-34.252-34.986C245.252,55.519,257.737,42.767,279.505,32.98z
				 M495.522,100.251v28.536c0,19.176-53.515,40.623-125.133,40.623c-71.619,0-125.135-21.447-125.135-40.623v-28.536
				c0.084,0.076,0.177,0.151,0.26,0.227c0.717,0.65,1.456,1.295,2.218,1.934c0.137,0.114,0.269,0.23,0.407,0.344
				c0.834,0.69,1.699,1.373,2.586,2.047c0.184,0.14,0.37,0.279,0.557,0.418c1.845,1.381,3.798,2.729,5.86,4.042
				c0.203,0.129,0.406,0.259,0.611,0.388c1.023,0.642,2.067,1.276,3.141,1.9c0.154,0.089,0.313,0.178,0.469,0.267
				c1.005,0.578,2.034,1.149,3.083,1.712c0.17,0.092,0.338,0.184,0.509,0.276c1.131,0.6,2.29,1.19,3.471,1.771
				c0.244,0.121,0.493,0.24,0.74,0.36c1.216,0.59,2.45,1.173,3.718,1.744c26.178,11.77,60.806,18.252,97.505,18.252
				c11.468,0,22.733-0.633,33.603-1.862c23.911-2.705,45.903-8.298,63.9-16.39c0.048-0.022,0.094-0.045,0.142-0.067
				c1.197-0.54,2.365-1.092,3.517-1.649c0.282-0.137,0.564-0.272,0.843-0.41c1.155-0.57,2.29-1.146,3.397-1.733
				c0.203-0.108,0.4-0.217,0.603-0.326c1.008-0.541,1.995-1.089,2.963-1.644c0.183-0.105,0.37-0.209,0.552-0.315
				c1.056-0.614,2.083-1.238,3.09-1.869c0.224-0.141,0.446-0.282,0.669-0.424c1.019-0.65,2.022-1.305,2.988-1.972
				c0.014-0.01,0.028-0.02,0.042-0.03c0.957-0.661,1.878-1.332,2.783-2.009c0.195-0.145,0.391-0.292,0.583-0.438
				c0.882-0.671,1.74-1.349,2.57-2.035c0.144-0.12,0.282-0.24,0.425-0.36c0.755-0.633,1.488-1.271,2.198-1.916
				C495.34,100.406,495.435,100.329,495.522,100.251z M277.572,270.933c-0.396,0.899-0.752,1.769-1.087,2.623
				c-7.894-7.183-18.378-11.569-29.866-11.569h-1.366v-105.73c25.259,19.178,76.292,29.3,125.135,29.3
				c48.842,0,99.875-10.12,125.133-29.3v247.497c0,19.176-53.515,40.623-125.133,40.623c-28.894,0-56.799-3.494-79.359-9.889
				v-51.837v-53.308V317.71c16.23,14.026,36.167,21.974,55.68,21.974c3.283,0,6.528-0.229,9.697-0.682l7.731,7.732
				c6.402,6.401,14.914,9.926,23.967,9.927c0.001,0,0.001,0,0.001,0c3.317,0,6.559-0.478,9.654-1.393
				c0.222,1.704,0.984,3.351,2.293,4.66l15.802,15.803l-0.592,6.393c-0.658,6.598,1.649,13.069,6.334,17.751
				c4.289,4.288,9.922,6.432,15.555,6.432s11.269-2.143,15.557-6.432c2.479-2.479,4.291-5.442,5.351-8.675
				c3.234-1.059,6.196-2.873,8.673-5.351c4.155-4.154,6.445-9.68,6.445-15.556s-2.29-11.402-6.443-15.555
				c-4.083-4.084-9.515-6.372-15.302-6.441c-1.355,0.004-2.703,0.094-4.021,0.321l-4.772,0.427l-20.02-20.021
				c0.59-2.521,0.901-5.125,0.901-7.779c0-9.053-3.526-17.565-9.927-23.966l-7.73-7.731c3.475-24.111-6.302-50.787-26.16-70.645
				c-2.743-2.742-5.761-4.958-8.424-6.917c-0.61-0.448-1.212-0.893-1.811-1.342c-2.497-2.293-6.768-4.798-13.509-4.798
				c-14.289,0-34.579,11.414-52.953,29.787C291.627,247.014,282.594,259.551,277.572,270.933z M391.464,297.987l10.709,10.71
				c3.351,3.351,5.197,7.808,5.197,12.548c0,2.362-0.46,4.654-1.335,6.773c-0.016,0.037-0.038,0.071-0.054,0.108
				c-0.446,1.06-0.988,2.067-1.623,3.012c-0.06,0.089-0.131,0.172-0.193,0.259c-0.264,0.377-0.532,0.75-0.825,1.107
				c-0.367,0.446-0.757,0.876-1.169,1.289l-1.521,1.521c-0.413,0.413-0.844,0.803-1.29,1.17c-0.319,0.263-0.656,0.501-0.99,0.738
				c-0.127,0.09-0.248,0.193-0.378,0.28c-0.944,0.634-1.95,1.177-3.009,1.62c-0.044,0.018-0.084,0.042-0.127,0.061
				c-2.114,0.87-4.399,1.327-6.754,1.327c-4.741,0-9.198-1.846-12.549-5.198l-10.708-10.708c-1.531-1.53-3.591-2.364-5.71-2.364
				c-0.565,0-1.137,0.06-1.701,0.181c-3.428,0.738-7.036,1.113-10.728,1.113c-15.284,0-31.053-6.202-44.179-17.208
				c0.015-0.004,0.032-0.011,0.047-0.015c0.72-0.207,1.449-0.438,2.184-0.684c0.156-0.053,0.313-0.105,0.47-0.159
				c0.745-0.256,1.496-0.526,2.255-0.822c0.021-0.009,0.044-0.018,0.066-0.027c0.745-0.291,1.498-0.605,2.256-0.933
				c0.15-0.065,0.299-0.129,0.45-0.195c0.77-0.339,1.545-0.695,2.326-1.071c0.1-0.048,0.201-0.1,0.301-0.149
				c0.728-0.354,1.46-0.726,2.196-1.111c0.122-0.064,0.243-0.126,0.365-0.191c0.796-0.422,1.596-0.862,2.401-1.32
				c0.137-0.078,0.273-0.158,0.411-0.237c0.773-0.445,1.548-0.902,2.327-1.379c0.058-0.035,0.116-0.07,0.175-0.105
				c0.821-0.505,1.646-1.03,2.474-1.57c0.153-0.099,0.305-0.2,0.458-0.3c1.666-1.098,3.341-2.266,5.021-3.5
				c0.149-0.11,0.298-0.219,0.447-0.329c0.834-0.618,1.669-1.251,2.504-1.901c0.08-0.061,0.158-0.125,0.237-0.187
				c0.786-0.615,1.572-1.246,2.356-1.888c0.125-0.102,0.25-0.202,0.375-0.306c0.829-0.684,1.657-1.381,2.483-2.095
				c0.132-0.114,0.264-0.229,0.395-0.343c0.786-0.684,1.572-1.378,2.354-2.087c0.069-0.061,0.137-0.122,0.205-0.184
				c0.827-0.753,1.651-1.521,2.473-2.302c0.152-0.144,0.302-0.289,0.453-0.434c0.826-0.791,1.65-1.591,2.469-2.41
				c0.775-0.775,1.54-1.561,2.298-2.353c0.209-0.217,0.412-0.439,0.619-0.658c0.54-0.572,1.079-1.145,1.609-1.725
				c0.258-0.282,0.512-0.566,0.769-0.85c0.474-0.525,0.944-1.052,1.408-1.581c0.269-0.307,0.535-0.614,0.801-0.923
				c0.448-0.52,0.891-1.041,1.329-1.565c0.259-0.31,0.519-0.619,0.775-0.93c0.448-0.544,0.887-1.089,1.324-1.636
				c0.231-0.291,0.466-0.58,0.695-0.872c0.492-0.625,0.972-1.254,1.449-1.883c0.16-0.212,0.327-0.424,0.485-0.636
				c0.634-0.847,1.255-1.697,1.86-2.549c0.095-0.133,0.184-0.268,0.279-0.402c0.503-0.713,0.997-1.426,1.478-2.141
				c0.191-0.283,0.374-0.566,0.561-0.849c0.376-0.568,0.747-1.137,1.109-1.705c0.203-0.321,0.402-0.641,0.6-0.961
				c0.333-0.536,0.66-1.072,0.98-1.607c0.196-0.328,0.389-0.656,0.579-0.984c0.311-0.535,0.614-1.07,0.911-1.604
				c0.177-0.319,0.355-0.637,0.527-0.955c0.306-0.565,0.6-1.129,0.888-1.693c0.147-0.277,0.295-0.557,0.435-0.835
				c0.353-0.707,0.689-1.411,1.014-2.113c0.06-0.13,0.127-0.263,0.186-0.393c0.383-0.84,0.745-1.675,1.086-2.505
				c0.078-0.189,0.145-0.377,0.222-0.565c0.253-0.632,0.497-1.261,0.724-1.885c0.1-0.277,0.191-0.549,0.286-0.825
				c0.186-0.536,0.366-1.071,0.533-1.602c0.039-0.122,0.085-0.247,0.123-0.369c13.675,16.443,19.716,36.81,15.873,54.641
				C388.704,293.258,389.526,296.048,391.464,297.987z M334.047,266.675c-17.215,17.215-33.597,25.058-41.534,25.058
				c-1.412,0-2.321-0.278-2.596-0.552c-0.789-0.789-1.275-5.343,2.426-13.73c4.175-9.461,12.224-20.542,22.082-30.399
				c17.215-17.216,33.599-25.058,41.534-25.058c1.412,0.001,2.32,0.278,2.594,0.552c0.197,0.197,0.346,0.507,0.451,0.9
				C360.252,228.086,354.804,245.918,334.047,266.675z M429.95,366.995l-18.481-18.482c-0.209-0.209-0.426-0.405-0.652-0.587
				c0.314-0.284,0.62-0.581,0.926-0.88c0.109-0.105,0.222-0.205,0.328-0.312l1.521-1.521c0.398-0.398,0.785-0.804,1.159-1.219
				l19.138,19.138c1.692,1.691,4.059,2.546,6.431,2.332l8.898-0.798c0.277-0.024,0.551-0.064,0.824-0.116
				c0.388-0.075,0.791-0.107,1.205-0.108c1.538,0.019,2.983,0.627,4.068,1.713c1.104,1.104,1.715,2.575,1.715,4.138
				s-0.609,3.032-1.717,4.139c-1.103,1.104-2.573,1.712-4.14,1.712c-0.032,0-0.066,0.001-0.099,0c-2.14,0-4.195,0.85-5.71,2.365
				c-1.529,1.529-2.38,3.606-2.364,5.767c0.012,1.581-0.596,3.067-1.711,4.181c-2.281,2.281-5.994,2.282-8.277,0
				c-1.246-1.244-1.86-2.969-1.679-4.786l0.947-10.222C432.502,371.056,431.649,368.693,429.95,366.995z M495.522,444.034
				c-0.001,12.448-12.486,25.2-34.254,34.986c-24.142,10.854-56.417,16.832-90.881,16.832c-30.436,0-59.244-4.683-82.205-13.276
				c0.029-0.077,0.054-0.157,0.083-0.235c0.088-0.237,0.168-0.478,0.253-0.718c0.144-0.412,0.287-0.824,0.42-1.24
				c0.089-0.281,0.172-0.565,0.256-0.848c0.113-0.382,0.224-0.764,0.327-1.15c0.082-0.306,0.158-0.613,0.232-0.92
				c0.09-0.371,0.178-0.743,0.258-1.116c0.069-0.318,0.135-0.635,0.197-0.955c0.073-0.376,0.139-0.753,0.202-1.131
				c0.053-0.318,0.105-0.635,0.152-0.955c0.057-0.397,0.106-0.796,0.152-1.194c0.036-0.304,0.074-0.605,0.103-0.911
				c0.043-0.453,0.074-0.907,0.104-1.363c0.016-0.254,0.039-0.507,0.052-0.762c0.034-0.716,0.055-1.433,0.055-2.153v-15.528v-0.185
				c23.141,6.031,50.856,9.313,79.359,9.313c48.85,0,99.88-10.124,125.133-29.309V444.034z"/>
			<path d="M310.76,87.532c13.012,0,23.639-4.74,28.23-11.841h24.518c4.46,0,8.074-3.614,8.074-8.074
				c0-4.46-3.614-8.074-8.074-8.074H338.99c-4.591-7.102-15.218-11.841-28.23-11.841c-17.491,0-30.68,8.561-30.68,19.915
				C280.08,78.971,293.269,87.532,310.76,87.532z M310.76,63.849c7.563,0,12.483,2.31,14.125,3.768
				c-1.642,1.458-6.561,3.768-14.125,3.768s-12.483-2.31-14.125-3.768C298.277,66.159,303.196,63.849,310.76,63.849z"/>
		</g>
	</g>
</g>
<g>
</g>
<g>
</g>
<g>
</g>
<g>
</g>
<g>
</g>
<g>
</g>
<g>
</g>
<g>
</g>
<g>
</g>
<g>
</g>
<g>
</g>
<g>
</g>
<g>
</g>
<g>
</g>
<g>
</g>
</svg>
